<?xml version="1.0" encoding="utf-8"?>
<!-- Generator: Adobe Illustrator 26.2.1, SVG Export Plug-In . SVG Version: 6.00 Build 0)  -->
<svg version="1.1" id="Layer_1" xmlns="http://www.w3.org/2000/svg" xmlns:xlink="http://www.w3.org/1999/xlink" x="0px" y="0px"
	 viewBox="0 0 100 100" style="enable-background:new 0 0 100 100;" xml:space="preserve">
<style type="text/css">
	.st0{fill:none;stroke:#086E7F;stroke-width:2;stroke-linecap:round;stroke-linejoin:round;stroke-miterlimit:10;}
</style>
<line class="st0" x1="53.7" y1="86.3" x2="79.5" y2="86.3"/>
<path class="st0" d="M75.5,18.9c0,4.6-11.8,8.3-26.4,8.3s-26.4-3.7-26.4-8.3c0-4.6,11.8-8.3,26.4-8.3S75.5,14.3,75.5,18.9z"/>
<path class="st0" d="M75.5,18.9v14.5c0,4.6-11.8,8.3-26.4,8.3s-26.4-3.7-26.4-8.3V18.9"/>
<path class="st0" d="M75.5,47.4v14.5c0,4.6-11.8,8.3-26.4,8.3s-26.4-3.7-26.4-8.3V47.4"/>
<path class="st0" d="M75.5,33v14.5c0,4.6-11.8,8.3-26.4,8.3s-26.4-3.7-26.4-8.3V33"/>
<line class="st0" x1="47.7" y1="33.9" x2="50.2" y2="33.9"/>
<line class="st0" x1="47.7" y1="48.4" x2="50.2" y2="48.4"/>
<line class="st0" x1="47.7" y1="62.8" x2="50.2" y2="62.8"/>
<line class="st0" x1="49.8" y1="71.2" x2="49.8" y2="82.5"/>
<rect x="46.6" y="83.1" class="st0" width="6.4" height="6.4"/>
<line class="st0" x1="20.8" y1="86.3" x2="46.6" y2="86.3"/>
</svg>
