<svg id="anytime-anywhere" xmlns="http://www.w3.org/2000/svg" viewBox="0 0 65 65"><defs><style>.cls-1,.cls-2{fill:none;stroke-linecap:round;stroke-linejoin:round;stroke-width:2px;}.cls-1{stroke:#45b97c;}.cls-2{stroke:#2a2a2a;}</style></defs><path class="cls-1" d="M58.94,47.55C57,46.46,55.16,45,53,44.86c-2.51-.18-4.84,1.36-7.35,1.63A4.83,4.83,0,0,0,44,46.8a3,3,0,0,0-1.35,1.93,4.07,4.07,0,0,0,.06,2.88,6.61,6.61,0,0,0,1.19,1.5,12.4,12.4,0,0,1,1.49,2,.91.91,0,0,1,.15.37c0,.34-.22.62-.37.93a1.78,1.78,0,0,0,0,1.51,4.57,4.57,0,0,0,.94,1.24c.52.52,1.05,1,1.61,1.49"/><path class="cls-1" d="M13.37,51.46a5.78,5.78,0,0,0,1.3-.16,1.73,1.73,0,0,0,.94-.5,1.94,1.94,0,0,0,.24-1.65A25.48,25.48,0,0,1,15.09,46a2.64,2.64,0,0,1,1.39-2.73,3.65,3.65,0,0,1,1.44-.12l3.79.2a1.62,1.62,0,0,0,.79-.1c.45-.23.56-.8.83-1.23a2.41,2.41,0,0,1,2.53-.88c1.23.26,1.88,1.27,3.19,1.24.59,0,1.25-1,1.6-1.46.7-.89.57-1.47.77-2.54.07-.34.16-.67.23-1a29.71,29.71,0,0,0,0-3.13,5.49,5.49,0,0,1,1.09-2.45,2.11,2.11,0,0,1,1.88-1.09c1.19.2,1.35,1.94.78,3s-1.55,2-1.66,3.2c-.05.56.11,1.12,0,1.68-.12,1.11-1,2.21-.54,3.2s1.9,1,2.8.38,1.51-1.51,2.37-2.13a2.05,2.05,0,0,1,1.2-.46c.74,0,1.32.58,1.93,1A4,4,0,0,0,45,41.2a2.68,2.68,0,0,0,1.83-2.86c-.31-1.58-2.12-2.3-3.66-2.8s-3.33-1.4-3.39-3c0-.34.06-.69,0-1a2.28,2.28,0,0,0-.39-1c-.91-1.46-2.59-2.22-4.18-2.9a3.9,3.9,0,0,0-1.56-.42c-.6,0-1.18.29-1.78.35-1.26.11-2.35-.79-3.28-1.64-.76-.68,1.5-1.56,1.71-2.55a6.42,6.42,0,0,0-.17-2.82c-.09-.47-1.19-.93-2.07-1.22"/><circle class="cls-1" cx="16.35" cy="14.33" r="6.84" transform="translate(-0.42 28.16) rotate(-80.75)"/><path class="cls-2" d="M29.37,14.05A25.3,25.3,0,1,1,11,31.32"/><path class="cls-2" d="M28.8,14.28c0,5.64-8.35,18.82-11.38,23.4a1.28,1.28,0,0,1-2.14,0C12.25,33.1,3.9,19.92,3.9,14.28a12.45,12.45,0,0,1,24.9,0Z"/></svg>