<svg id="_100_Pricing_Model" data-name="100% Pricing Model" xmlns="http://www.w3.org/2000/svg" viewBox="0 0 65 65"><defs><style>.cls-1,.cls-2{fill:none;stroke-linecap:round;stroke-linejoin:round;stroke-width:2px;}.cls-1{stroke:#f8971e;}.cls-2{stroke:#2a2a2a;}</style></defs><path class="cls-1" d="M36.91,54.38a5.32,5.32,0,0,0,4.75,2.5c2.86,0,5.17-1.83,5.17-4.1v.11c0-2.26-2.31-4.1-5.17-4.1S36.5,47,36.5,44.69s2.31-4.09,5.16-4.09a5.43,5.43,0,0,1,4.62,2.25"/><line class="cls-1" x1="41.66" y1="40.6" x2="41.66" y2="38.69"/><line class="cls-1" x1="41.66" y1="58.79" x2="41.66" y2="56.88"/><path class="cls-2" d="M7.19,4.93c1.91.46,4.72-2.49,7.42-2.49h20a12.82,12.82,0,0,1,7.4,2C46,7.21,51,11.56,55.18,14.34c.73.49,1.75,1.14,1.78,1.81.06,1.22-2.05,2.72-4.19,3a7.09,7.09,0,0,1-4.63-1,93.23,93.23,0,0,1-9.52-6.27H25.19c-2.43,0-4.35,1.26-4.35,3.44S22.76,17,25.19,17h8.7c2.34,0,4.31,1.21,4.31,3.48s-1.88,3.65-4.72,4c-4,.47-13.36,1-18.92,1.61A13.42,13.42,0,0,1,7,24.54c-.82-.49-1.73-1-2.67-1.45"/><line class="cls-1" x1="22.9" y1="62.99" x2="60.43" y2="62.99"/><path class="cls-1" d="M29.47,63a18.77,18.77,0,1,1,24.39,0"/></svg>