<?xml version="1.0" encoding="utf-8"?>
<!-- Generator: Adobe Illustrator 26.2.1, SVG Export Plug-In . SVG Version: 6.00 Build 0)  -->
<svg version="1.1" id="Layer_2" xmlns="http://www.w3.org/2000/svg" xmlns:xlink="http://www.w3.org/1999/xlink" x="0px" y="0px"
	 viewBox="0 0 100 100" style="enable-background:new 0 0 100 100;" xml:space="preserve">
<style type="text/css">
	.st0{fill:none;stroke:#086D7F;stroke-width:2;stroke-linecap:round;stroke-linejoin:round;}
</style>
<path class="st0" d="M55.1,31.3H44c-2.3,0-4.2-1.9-4.2-4.2V16c0-2.3,1.9-4.2,4.2-4.2h11.1c2.3,0,4.2,1.9,4.2,4.2v11.1
	C59.3,29.4,57.4,31.3,55.1,31.3z"/>
<path class="st0" d="M55.1,56.4H44c-2.3,0-4.2-1.9-4.2-4.2V41.1c0-2.3,1.9-4.2,4.2-4.2h11.1c2.3,0,4.2,1.9,4.2,4.2v11.1
	C59.3,54.5,57.4,56.4,55.1,56.4z"/>
<path class="st0" d="M34.2,45.2h-9.8c-2.3,0-4.2-1.9-4.2-4.2V24.3c0-2.3,1.9-4.2,4.2-4.2h9.8"/>
<path class="st0" d="M64.9,52.4h9.8c2.3,0,4.2,1.9,4.2,4.2v13.9c0,2.3-1.9,4.2-4.2,4.2h-9.8"/>
<path class="st0" d="M64.9,20.2h9.8c2.3,0,4.2,1.9,4.2,4.2v13.9c0,2.3-1.9,4.2-4.2,4.2h-9.8"/>
<polyline class="st0" points="28.7,39.7 34.2,45.2 28.7,50.8 "/>
<polyline class="st0" points="70.5,25.7 64.9,20.2 70.5,14.6 "/>
<polyline class="st0" points="70.5,46.8 64.9,52.4 70.5,58 "/>
<line class="st0" x1="20.3" y1="73.1" x2="20.3" y2="73.1"/>
<line class="st0" x1="20.3" y1="67.5" x2="20.3" y2="67.5"/>
<line class="st0" x1="25.9" y1="67.5" x2="25.9" y2="67.5"/>
<line class="st0" x1="20.3" y1="62" x2="20.3" y2="62"/>
<line class="st0" x1="20.3" y1="56.4" x2="20.3" y2="56.4"/>
<line class="st0" x1="25.9" y1="73.1" x2="25.9" y2="73.1"/>
<line class="st0" x1="31.5" y1="73.1" x2="31.5" y2="73.1"/>
<path class="st0" d="M61,84.6c0,1.7-1.3,3-3,3H42c-1.7,0-3-1.3-3-3v-10c0-1.7,1.3-3,3-3h16c1.7,0,3,1.3,3,3V84.6z"/>
<path class="st0" d="M43,71.6v-5c0-3.9,3.1-7,7-7c3.9,0,7,3.1,7,7v5"/>
</svg>
