<?xml version="1.0" encoding="utf-8"?>
<!-- Generator: Adobe Illustrator 26.2.1, SVG Export Plug-In . SVG Version: 6.00 Build 0)  -->
<svg version="1.1" xmlns="http://www.w3.org/2000/svg" xmlns:xlink="http://www.w3.org/1999/xlink" x="0px" y="0px"
	 viewBox="0 0 100 100" style="enable-background:new 0 0 100 100;" xml:space="preserve">
<style type="text/css">
	.st0{display:none;}
	.st1{display:inline;fill:none;stroke:#086E7F;stroke-width:2;stroke-linecap:round;stroke-linejoin:round;stroke-miterlimit:10;}
	.st2{display:inline;}
	.st3{fill:none;stroke:#086E7F;stroke-width:2;stroke-linecap:round;stroke-linejoin:round;stroke-miterlimit:10;}
	.st4{display:inline;fill:none;stroke:#086E7F;stroke-width:2;stroke-linecap:round;stroke-linejoin:round;}
</style>
<g id="agentless_backup" class="st0">
	<line class="st1" x1="53.9" y1="87.8" x2="79.7" y2="87.8"/>
	<path class="st1" d="M75.8,20.3c0,4.6-11.8,8.3-26.4,8.3S23,24.9,23,20.3c0-4.6,11.8-8.3,26.4-8.3S75.8,15.7,75.8,20.3z"/>
	<path class="st1" d="M75.8,20.3v14.5c0,4.6-11.8,8.3-26.4,8.3S23,39.4,23,34.8V20.3"/>
	<path class="st1" d="M75.8,48.8v14.5c0,4.6-11.8,8.3-26.4,8.3S23,67.9,23,63.3V48.8"/>
	<path class="st1" d="M75.8,34.5V49c0,4.6-11.8,8.3-26.4,8.3S23,53.6,23,49V34.5"/>
	<line class="st1" x1="47.9" y1="35.4" x2="50.4" y2="35.4"/>
	<line class="st1" x1="47.9" y1="49.8" x2="50.4" y2="49.8"/>
	<line class="st1" x1="47.9" y1="64.2" x2="50.4" y2="64.2"/>
	<line class="st1" x1="50.1" y1="72.7" x2="50.1" y2="83.9"/>
	<rect x="46.8" y="84.6" class="st1" width="6.4" height="6.4"/>
	<line class="st1" x1="21" y1="87.8" x2="46.8" y2="87.8"/>
</g>
<g id="best_pricing" class="st0">
	<path class="st1" d="M78.9,21v62.5c0,2.3-1.9,4.2-4.2,4.2H25.1c-2.3,0-4.2-1.9-4.2-4.2V21c0-2.3,1.9-4.2,4.2-4.2h6.2v1.9
		c0,1.3,1,2.3,2.3,2.3c1.3,0,2.3-1,2.3-2.3v-1.9h11.7v1.9c0,1.3,1,2.3,2.3,2.3c1.3,0,2.3-1,2.3-2.3v-1.9h11.7v1.9
		c0,1.3,1,2.3,2.3,2.3c1.3,0,2.3-1,2.3-2.3v-1.9h6.2C77.1,16.8,78.9,18.7,78.9,21z"/>
	<g class="st2">
		<path class="st3" d="M35.9,14.9v3.8c0,1.3-1,2.3-2.3,2.3c-1.3,0-2.3-1-2.3-2.3v-3.8c0-1.3,1-2.3,2.3-2.3
			C34.8,12.5,35.9,13.6,35.9,14.9z"/>
		<path class="st3" d="M52.2,14.9v3.8c0,1.3-1,2.3-2.3,2.3c-1.3,0-2.3-1-2.3-2.3v-3.8c0-1.3,1-2.3,2.3-2.3
			C51.2,12.5,52.2,13.6,52.2,14.9z"/>
		<path class="st3" d="M68.6,14.9v3.8c0,1.3-1,2.3-2.3,2.3c-1.3,0-2.3-1-2.3-2.3v-3.8c0-1.3,1-2.3,2.3-2.3
			C67.5,12.5,68.6,13.6,68.6,14.9z"/>
	</g>
	<g class="st2">
		<rect x="30" y="59.8" class="st3" width="8.4" height="27.7"/>
		<rect x="45.7" y="70" class="st3" width="8.4" height="17.5"/>
		<rect x="60.2" y="64.6" class="st3" width="8.4" height="23"/>
	</g>
	<g class="st2">
		<line class="st3" x1="63" y1="54.6" x2="52.1" y2="60.4"/>
		<line class="st3" x1="48.1" y1="59.9" x2="36" y2="48.8"/>
		<path class="st3" d="M36.7,47.2c0,0.6-0.3,1.2-0.6,1.7c-0.4,0.5-1.1,0.8-1.8,0.8c-1.3,0-2.4-1.1-2.4-2.4c0-1.3,1.1-2.4,2.4-2.4
			C35.6,44.7,36.7,45.8,36.7,47.2z"/>
		<path class="st3" d="M52.3,61.5c0,1.4-1.1,2.4-2.4,2.4c-1.4,0-2.4-1.1-2.4-2.4c0-0.6,0.2-1.2,0.6-1.6c0.4-0.5,1.1-0.8,1.8-0.8
			c0.9,0,1.8,0.5,2.2,1.3C52.2,60.7,52.3,61.1,52.3,61.5z"/>
		<path class="st3" d="M67.3,53.1c0,1.3-1.1,2.4-2.4,2.4c-0.8,0-1.4-0.4-1.9-0.9c-0.4-0.4-0.6-1-0.6-1.5c0-1.4,1.1-2.4,2.4-2.4
			C66.3,50.6,67.3,51.7,67.3,53.1z"/>
	</g>
	<g class="st2">
		<g>
			<path class="st3" d="M53.2,33.3c-1.6-1.6-5.1-1.2-5.2,1.4c-0.1,3.1,5.5,2.9,5.5,5.9c0,2.6-3.8,3-6.2,1.7"/>
			<line class="st3" x1="51.2" y1="30.6" x2="50.9" y2="32.3"/>
			<line class="st3" x1="49.5" y1="43" x2="49.3" y2="44.8"/>
		</g>
		<circle class="st3" cx="50.5" cy="37.7" r="10.9"/>
	</g>
</g>
<g id="sm_biz_to_enterprise">
	<rect x="21.3" y="67.9" class="st3" width="17.1" height="19.8"/>
	<polyline class="st3" points="26.8,86.7 26.8,80.7 32.8,80.7 32.8,86.7 	"/>
	<rect x="59.8" y="52.2" class="st3" width="17.1" height="35.3"/>
	<polyline class="st3" points="65.4,87.5 65.4,80.5 71.4,80.5 71.4,87.5 	"/>
	<polyline class="st3" points="68.4,52.2 68.4,28.7 45.3,28.7 45.3,87.2 	"/>
	<polyline class="st3" points="64.3,28.7 64.3,22 49.3,22 49.3,28.7 	"/>
	<line class="st3" x1="56.8" y1="22" x2="56.8" y2="12.5"/>
	<line class="st3" x1="19.8" y1="87.7" x2="78.3" y2="87.7"/>
</g>
<g id="app_data_security" class="st0">
	<path class="st4" d="M48.2,87c0,0,18.1-6.9,18.1-22.3V48c0,0-8.1-5.6-18.1-5.6S30.1,48,30.1,48v16.7C30.1,80.1,48.2,87,48.2,87z"/>
	<polyline class="st4" points="58,58.4 52.4,64 46.8,69.5 41.2,64 	"/>
	<path class="st4" d="M67,59.9h6.5c7.5,0,13.7-6.4,13.7-14.2c0-5.9-3.5-11-8.4-13.1c0.1-0.8,0.2-1.7,0.2-2.5
		c0-10.2-7.9-18.5-17.8-18.5c-8.7,0-16,6.5-17.5,15.2c-2-1.5-4.5-2.4-7.1-2.4c-6.8,0-12.3,5.7-12.3,12.8c0,1,0.1,2,0.4,3
		c-0.6-0.1-1.1-0.2-1.7-0.2c-5.3,0-9.6,4.5-9.6,10c0,5.5,4.3,9.9,9.6,9.9h6.6"/>
</g>
<g id="business_continuity" class="st0">
	<polyline class="st1" points="58.6,37.2 58.6,87.7 48.7,87.7 48.7,77.8 31,77.8 31,87.7 21.1,87.7 21.1,12.6 58.6,12.6 	"/>
	<line class="st1" x1="29" y1="20.5" x2="49.7" y2="20.5"/>
	<line class="st1" x1="29" y1="28.4" x2="49.7" y2="28.4"/>
	<line class="st1" x1="29" y1="36.3" x2="49.7" y2="36.3"/>
	<line class="st1" x1="29" y1="44.2" x2="49.7" y2="44.2"/>
	<line class="st1" x1="29" y1="52.1" x2="49.7" y2="52.1"/>
	<line class="st1" x1="29" y1="60" x2="49.7" y2="60"/>
	<line class="st1" x1="29" y1="67.9" x2="49.7" y2="67.9"/>
	<g class="st2">
		<polyline class="st3" points="58.6,87.7 76.4,87.7 76.4,37.4 		"/>
		<line class="st3" x1="70.5" y1="44.2" x2="64.5" y2="44.2"/>
		<line class="st3" x1="70.5" y1="52.1" x2="64.5" y2="52.1"/>
		<line class="st3" x1="70.5" y1="60" x2="64.5" y2="60"/>
		<line class="st3" x1="70.5" y1="67.9" x2="64.5" y2="67.9"/>
		<line class="st3" x1="70.5" y1="75.8" x2="64.5" y2="75.8"/>
	</g>
	<line class="st1" x1="20.1" y1="87.7" x2="81.5" y2="87.7"/>
	<path class="st1" d="M53.9,31.6c-1-2-1.5-4.2-1.5-6.5c0-8.1,6.6-14.7,14.7-14.7c2.6,0,5.1,0.7,7.2,1.9"/>
	<path class="st1" d="M79.7,16.9c1.5,2.3,2.4,5.1,2.4,8.1c0,8.1-6.6,14.7-14.7,14.7c-3.3,0-6.3-1.1-8.7-2.9"/>
	<polyline class="st1" points="77.7,19.7 78.4,15.1 83,15.8 	"/>
	<polyline class="st1" points="56.7,29.4 54.6,33.5 50.5,31.4 	"/>
	<polyline class="st1" points="60.1,24.8 65.6,31 73.8,18.8 	"/>
</g>
<g id="compliance_management" class="st0">
	<polyline class="st1" points="59.3,17.7 78.6,17.7 78.6,87.9 21.4,87.9 21.4,17.7 40.7,17.7 	"/>
	<path class="st1" d="M60.2,25.6v-7.9H39.8v7.9c0,1.7,1.3,3,3,3H50h7.2C58.9,28.6,60.2,27.3,60.2,25.6z"/>
	<polyline class="st1" points="60.3,24.8 71.5,24.8 71.5,79.2 28.6,79.2 28.6,24.8 39.8,24.8 	"/>
	<path class="st1" d="M44.1,17.7c0-3.3,2.6-5.9,5.9-5.9c3.3,0,5.9,2.6,5.9,5.9"/>
	<g class="st2">
		<line class="st3" x1="46.5" y1="54" x2="65.2" y2="54"/>
		<polyline class="st3" points="34.6,53.3 37.5,56.1 42.5,51.1 		"/>
		<line class="st3" x1="46.5" y1="65.8" x2="65.2" y2="65.8"/>
		<polyline class="st3" points="34.5,65 37.3,67.8 42.3,62.8 		"/>
	</g>
	<line class="st1" x1="46.5" y1="42.3" x2="65.2" y2="42.3"/>
	<polyline class="st1" points="34.5,41.5 37.3,44.4 42.3,39.4 	"/>
</g>
</svg>
