<?xml version="1.0" encoding="utf-8"?>
<!-- Generator: Adobe Illustrator 26.2.1, SVG Export Plug-In . SVG Version: 6.00 Build 0)  -->
<svg version="1.1" id="Layer_1" xmlns="http://www.w3.org/2000/svg" xmlns:xlink="http://www.w3.org/1999/xlink" x="0px" y="0px"
	 viewBox="0 0 100 100" style="enable-background:new 0 0 100 100;" xml:space="preserve">
<style type="text/css">
	.st0{fill:none;stroke:#086E7F;stroke-width:2;stroke-linecap:round;stroke-linejoin:round;}
</style>
<path class="st0" d="M48.2,87c0,0,18.1-6.9,18.1-22.3V48c0,0-8.1-5.6-18.1-5.6S30.1,48,30.1,48v16.7C30.1,80.1,48.2,87,48.2,87z"/>
<polyline class="st0" points="58,58.4 52.4,64 46.8,69.5 41.2,64 "/>
<path class="st0" d="M67,59.9h6.5c7.5,0,13.7-6.4,13.7-14.2c0-5.9-3.5-11-8.4-13.1c0.1-0.8,0.2-1.7,0.2-2.5
	c0-10.2-7.9-18.5-17.8-18.5c-8.7,0-16,6.5-17.5,15.2c-2-1.5-4.5-2.4-7.1-2.4c-6.8,0-12.3,5.7-12.3,12.8c0,1,0.1,2,0.4,3
	c-0.6-0.1-1.1-0.2-1.7-0.2c-5.3,0-9.6,4.5-9.6,10c0,5.5,4.3,9.9,9.6,9.9h6.6"/>
</svg>
