<?xml version="1.0" encoding="utf-8"?>
<!-- Generator: Adobe Illustrator 26.2.1, SVG Export Plug-In . SVG Version: 6.00 Build 0)  -->
<svg version="1.1" id="Layer_1" xmlns="http://www.w3.org/2000/svg" xmlns:xlink="http://www.w3.org/1999/xlink" x="0px" y="0px"
	 viewBox="0 0 100 100" style="enable-background:new 0 0 100 100;" xml:space="preserve">
<style type="text/css">
	.st0{fill:none;stroke:#086E7F;stroke-width:2;stroke-linecap:round;stroke-linejoin:round;stroke-miterlimit:10;}
</style>
<polyline class="st0" points="58.6,37.2 58.6,87.7 48.7,87.7 48.7,77.8 31,77.8 31,87.7 21.1,87.7 21.1,12.6 58.6,12.6 "/>
<line class="st0" x1="29" y1="20.5" x2="49.7" y2="20.5"/>
<line class="st0" x1="29" y1="28.4" x2="49.7" y2="28.4"/>
<line class="st0" x1="29" y1="36.3" x2="49.7" y2="36.3"/>
<line class="st0" x1="29" y1="44.2" x2="49.7" y2="44.2"/>
<line class="st0" x1="29" y1="52.1" x2="49.7" y2="52.1"/>
<line class="st0" x1="29" y1="60" x2="49.7" y2="60"/>
<line class="st0" x1="29" y1="67.9" x2="49.7" y2="67.9"/>
<g>
	<polyline class="st0" points="58.6,87.7 76.4,87.7 76.4,37.4 	"/>
	<line class="st0" x1="70.5" y1="44.2" x2="64.5" y2="44.2"/>
	<line class="st0" x1="70.5" y1="52.1" x2="64.5" y2="52.1"/>
	<line class="st0" x1="70.5" y1="60" x2="64.5" y2="60"/>
	<line class="st0" x1="70.5" y1="67.9" x2="64.5" y2="67.9"/>
	<line class="st0" x1="70.5" y1="75.8" x2="64.5" y2="75.8"/>
</g>
<line class="st0" x1="20.1" y1="87.7" x2="81.5" y2="87.7"/>
<path class="st0" d="M53.9,31.6c-1-2-1.5-4.2-1.5-6.5c0-8.1,6.6-14.7,14.7-14.7c2.6,0,5.1,0.7,7.2,1.9"/>
<path class="st0" d="M79.7,16.9c1.5,2.3,2.4,5.1,2.4,8.1c0,8.1-6.6,14.7-14.7,14.7c-3.3,0-6.3-1.1-8.7-2.9"/>
<polyline class="st0" points="77.7,19.7 78.4,15.1 83,15.8 "/>
<polyline class="st0" points="56.7,29.4 54.6,33.5 50.5,31.4 "/>
<polyline class="st0" points="60.1,24.8 65.6,31 73.8,18.8 "/>
</svg>
